<svg width="170" height="40" viewBox="0 0 170 40" fill="none" xmlns="http://www.w3.org/2000/svg">
<g clip-path="url(#clip0_2_3095)">
<path d="M10.6589 16.6871L4.46185 10.5521L2.97457 11.7791V15.7055V21.1043H0V15.7055V5.39877V0H2.97457V5.39877V10.7975L9.41946 4.90798L14.8728 0H15.8643L12.1461 3.68098C11.6504 3.92638 11.4025 4.41718 10.9067 4.90798L10.411 5.39877L6.94065 8.58896L14.8728 16.6871C14.8728 16.6871 15.3686 16.9325 15.3686 17.1779L19.3347 21.1043H15.1207L11.8983 17.6687C11.4025 17.4233 11.1546 16.9325 10.6589 16.6871Z" fill="#5D6163"/>
<path d="M37.678 2.94479C39.9089 0.981595 41.6441 0 44.8665 0C48.089 0 50.072 0.981595 52.303 2.94479C54.5339 4.66258 55.5254 7.36196 55.5254 10.5521C55.5254 13.7423 54.5339 16.1963 52.5508 18.1595C50.5678 20.1227 48.5848 21.1043 45.1144 21.1043C41.892 21.1043 39.9089 20.1227 37.678 18.1595C35.695 16.1963 34.4556 13.4969 34.4556 10.3067C34.4556 7.36196 35.4471 4.66258 37.678 2.94479ZM39.9089 17.9141C41.1483 19.6319 42.6356 20.3681 45.1144 20.3681C47.3454 20.3681 48.8326 19.6319 50.3199 17.9141C51.5593 16.1963 52.0551 13.7423 52.0551 10.5521C52.0551 7.36196 51.8072 4.90798 50.3199 3.19018C49.0805 1.47239 47.3453 0.736196 44.8665 0.736196C42.3877 0.736196 41.1483 1.47239 39.9089 3.19018C38.6695 4.90798 37.9259 7.36196 37.9259 10.5521C37.9259 13.7423 38.6695 16.1963 39.9089 17.9141Z" fill="#5D6163"/>
<path d="M91.4679 12.2699H94.4424V15.7055C94.4424 16.9325 93.9467 18.1595 92.9551 18.8957C92.2115 19.6319 91.4679 20.1227 90.7242 20.3681C88.9891 21.1043 87.5018 21.3497 86.0145 21.3497C83.0399 21.3497 80.5611 20.3681 78.5781 18.4049C76.595 16.4417 75.6035 13.9877 75.6035 11.0429C75.6035 8.09816 76.595 5.64417 78.3302 3.43558C80.0654 1.22699 83.0399 0 86.0145 0C88.7412 0 90.9721 0.981595 92.7073 2.94479L91.9636 3.68098C91.7157 3.19018 91.22 2.94479 90.9721 2.45399C89.7327 1.22699 87.9975 0.490798 86.2624 0.490798C84.2793 0.490798 82.5442 1.22699 81.0569 2.69939C79.5696 4.17178 78.826 6.62577 78.826 10.3067C78.826 13.9877 79.5696 16.4417 81.0569 17.9141C82.5442 19.6319 84.2793 20.3681 86.5103 20.3681C87.5018 20.3681 88.4933 20.1227 89.4848 19.6319C90.2285 19.1411 90.9721 18.6503 91.22 18.1595C91.4679 17.4233 91.7157 16.6871 91.7157 15.9509V12.2699H91.4679Z" fill="#5D6163"/>
<path d="M124.188 13.4969H116.256L113.281 21.3497H112.042L120.966 0H121.709L130.881 21.1043H127.411C126.171 18.4049 125.923 17.1779 125.923 17.1779L124.188 13.4969ZM123.94 12.7607L120.222 3.92638L116.504 12.7607H123.94Z" fill="#5D6163"/>
<path d="M151.455 2.94479C153.686 0.981595 155.421 0 158.643 0C161.866 0 163.849 0.981595 166.08 2.94479C168.311 4.90798 169.302 7.36196 169.302 10.7975C169.302 13.9877 168.311 16.4417 166.328 18.4049C164.345 20.3681 162.362 21.3497 158.891 21.3497C155.669 21.3497 153.686 20.3681 151.455 18.4049C149.472 16.4417 148.232 13.7423 148.232 10.5521C148.232 7.36196 149.224 4.66258 151.455 2.94479ZM153.686 17.9141C154.925 19.6319 156.412 20.3681 158.891 20.3681C161.122 20.3681 162.609 19.6319 164.097 17.9141C165.336 16.1963 165.832 13.7423 165.832 10.5521C165.832 7.36196 165.584 4.90798 164.097 3.19018C162.857 1.47239 161.122 0.736196 158.643 0.736196C156.165 0.736196 154.925 1.47239 153.686 3.19018C152.446 4.90798 151.703 7.36196 151.703 10.5521C151.703 13.7423 152.446 16.1963 153.686 17.9141Z" fill="#5D6163"/>
<path d="M44.3706 33.8652H46.8494C48.8325 33.8652 50.0719 35.0922 50.0719 36.81C50.0719 38.5278 48.8325 39.7548 46.8494 39.7548H44.3706V33.8652ZM46.8494 39.264C48.3367 39.264 49.5761 38.2824 49.5761 36.81C49.5761 35.3376 48.5846 34.356 46.8494 34.356H45.1142V39.264H46.8494Z" fill="#5D6163"/>
<path d="M59.7393 36.81C59.7393 35.0922 60.9787 33.8652 62.9617 33.8652C64.6969 33.8652 66.1841 35.0922 66.1841 36.81C66.1841 38.5278 64.9447 39.7548 62.9617 39.7548C60.9787 40.0002 59.7393 38.5278 59.7393 36.81ZM65.4405 36.81C65.4405 35.3376 64.449 34.356 62.9617 34.356C61.4744 34.356 60.4829 35.3376 60.4829 36.81C60.4829 38.2824 61.4744 39.264 62.9617 39.264C64.2011 39.264 65.4405 38.2824 65.4405 36.81Z" fill="#5D6163"/>
<path d="M75.3555 36.81C75.3555 35.0922 76.5949 33.8652 78.5779 33.8652C79.5694 33.8652 80.3131 34.1106 80.8088 34.8468L80.3131 35.3376C80.0652 34.6014 79.3216 34.356 78.5779 34.356C77.0906 34.356 76.0991 35.3376 76.0991 36.81C76.0991 38.2824 77.0906 39.264 78.5779 39.264C79.3216 39.264 79.8173 39.0186 80.3131 38.5278L80.8088 39.0186C80.3131 39.5094 79.5694 40.0002 78.5779 40.0002C76.8428 40.0002 75.3555 38.5278 75.3555 36.81Z" fill="#5D6163"/>
<path d="M91.9638 34.356H89.7329V33.8652H94.6905V34.356H92.4596V39.7548H91.716V34.356H91.9638Z" fill="#5D6163"/>
<path d="M103.614 36.81C103.614 35.0922 104.854 33.8652 106.837 33.8652C108.572 33.8652 110.059 35.0922 110.059 36.81C110.059 38.5278 108.82 39.7548 106.837 39.7548C105.102 40.0002 103.614 38.5278 103.614 36.81ZM109.315 36.81C109.315 35.3376 108.324 34.356 106.837 34.356C105.349 34.356 104.358 35.3376 104.358 36.81C104.358 38.2824 105.349 39.264 106.837 39.264C108.324 39.264 109.315 38.2824 109.315 36.81Z" fill="#5D6163"/>
<path d="M124.188 40.0004L122.701 38.0372C122.453 38.0372 122.453 38.0372 122.205 38.0372H120.47V40.0004H119.726V34.1108H121.957C123.444 34.1108 124.436 34.847 124.436 36.074C124.436 37.0556 123.94 37.7918 122.949 38.0372L124.436 40.0004H124.188ZM124.188 36.074C124.188 35.0924 123.444 34.6016 122.453 34.6016H120.965V37.5464H122.453C123.444 37.5464 124.188 36.8102 124.188 36.074Z" fill="#5D6163"/>
</g>
<defs>
<clipPath id="clip0_2_3095">
<rect width="169.302" height="40" fill="white"/>
</clipPath>
</defs>
</svg>
